<?xml version="1.0" encoding="utf-8"?>
<!-- Generator: Adobe Illustrator 15.1.0, SVG Export Plug-In  -->
<!DOCTYPE svg PUBLIC "-//W3C//DTD SVG 1.1//EN" "http://www.w3.org/Graphics/SVG/1.1/DTD/svg11.dtd" [
	<!ENTITY ns_flows "http://ns.adobe.com/Flows/1.0/">
]>
<svg version="1.1"
	 xmlns="http://www.w3.org/2000/svg" xmlns:xlink="http://www.w3.org/1999/xlink" xmlns:a="http://ns.adobe.com/AdobeSVGViewerExtensions/3.0/"
	 x="0px" y="0px" width="324px" height="84px" viewBox="-0.369 0 324 84" enable-background="new -0.369 0 324 84"
	 xml:space="preserve">
<defs>
</defs>
<path fill="#040D0B" d="M20.392,83.537c-3.361,0-6.306-0.493-8.855-1.475C8.995,81.081,6.87,79.4,5.161,77.027
	c-1.708-2.373-2.994-5.563-3.862-9.588C0.43,63.421,0,58.372,0,52.3c0-6.073,0.43-11.121,1.299-15.139
	c0.868-4.018,2.125-7.216,3.778-9.589c1.645-2.372,3.685-4.046,6.114-5.034c2.429-0.982,5.204-1.469,8.332-1.469
	c3.065,0,5.812,0.169,8.241,0.515c2.429,0.346,4.307,0.756,5.642,1.215v4.773H22.99c-1.85,0-3.544,0.374-5.076,1.13
	c-1.533,0.748-2.86,2.055-3.99,3.905s-1.991,4.378-2.598,7.59c-0.608,3.213-0.911,7.245-0.911,12.103s0.31,8.897,0.953,12.103
	c0.635,3.213,1.532,5.74,2.69,7.598c1.151,1.85,2.556,3.148,4.209,3.904c1.645,0.748,3.509,1.123,5.592,1.123h10.415v4.773
	c-1.335,0.466-3.213,0.869-5.642,1.215C26.203,83.361,23.456,83.537,20.392,83.537"/>
<path fill="#040D0B" d="M78.087,41.892c0,2.944-0.233,5.479-0.692,7.591c-0.466,2.111-1.115,3.905-1.956,5.381
	c-0.833,1.475-1.85,2.704-3.036,3.686c-1.186,0.982-2.471,1.794-3.855,2.429L80.255,82.67H68.548l-9.985-19.524h-5.634V82.67H42.514
	V22.799c2.196-0.635,4.455-1.08,6.771-1.341c2.309-0.262,5.119-0.389,8.417-0.389c3.58,0,6.666,0.389,9.236,1.165
	c2.577,0.784,4.688,2.013,6.334,3.693c1.652,1.674,2.866,3.827,3.643,6.461C77.699,35.021,78.087,38.185,78.087,41.892
	 M57.702,56.205c1.617,0,3.05-0.227,4.293-0.692c1.243-0.466,2.281-1.257,3.121-2.388c0.84-1.129,1.476-2.604,1.914-4.426
	c0.43-1.822,0.649-4.089,0.649-6.808c0-2.718-0.219-4.992-0.649-6.814c-0.438-1.821-1.074-3.297-1.914-4.427
	c-0.84-1.123-1.878-1.921-3.121-2.387c-1.243-0.459-2.676-0.692-4.293-0.692h-4.773v28.633H57.702z"/>
<polygon fill="#040D0B" points="100.217,75.729 121.471,75.729 121.471,82.67 89.802,82.67 89.802,21.93 121.471,21.93 
	121.471,28.871 100.217,28.871 100.217,47.526 118.872,47.526 118.872,54.467 100.217,54.467 "/>
<path fill="#040D0B" d="M169.189,52.3c0,5.847-0.48,10.761-1.434,14.751c-0.953,3.989-2.373,7.202-4.251,9.631
	c-1.878,2.43-4.194,4.18-6.941,5.253c-2.747,1.066-5.917,1.603-9.497,1.603c-3.298,0-6.108-0.133-8.417-0.387
	c-2.316-0.263-4.576-0.713-6.772-1.35V22.799c2.196-0.636,4.456-1.08,6.772-1.342c2.309-0.261,5.119-0.388,8.417-0.388
	c3.58,0,6.75,0.53,9.497,1.603c2.747,1.073,5.063,2.817,6.941,5.246c1.878,2.429,3.298,5.642,4.251,9.631
	C168.709,41.539,169.189,46.461,169.189,52.3 M158.774,52.3c0-4.858-0.29-8.89-0.861-12.103c-0.579-3.212-1.377-5.74-2.387-7.59
	c-1.017-1.85-2.245-3.157-3.693-3.905c-1.44-0.756-3.036-1.13-4.766-1.13h-4.773v49.456h4.773c1.73,0,3.326-0.373,4.766-1.123
	c1.448-0.754,2.676-2.055,3.693-3.904c1.01-1.857,1.808-4.385,2.387-7.598C158.484,61.197,158.774,57.158,158.774,52.3"/>
<rect x="180.035" y="21.93" fill="#040D0B" width="10.414" height="60.739"/>
<polygon fill="#040D0B" points="198.26,21.93 235.57,21.93 235.57,28.871 222.118,28.871 222.118,82.67 211.711,82.67 
	211.711,28.871 198.26,28.871 "/>
<rect x="247.965" fill="#F1CA47" width="14.16" height="82.589"/>
<polygon fill="#F1CA47" points="272.744,0 323.477,0 323.477,9.436 305.188,9.436 305.188,82.589 291.027,82.589 291.027,9.436 
	272.744,9.436 "/>
</svg>
